<?xml version="1.0" encoding="utf-8"?>
<!-- Generator: Adobe Illustrator 27.1.0, SVG Export Plug-In . SVG Version: 6.00 Build 0)  -->
<svg version="1.1" id="Layer_1" xmlns="http://www.w3.org/2000/svg" xmlns:xlink="http://www.w3.org/1999/xlink" x="0px" y="0px"
	 viewBox="0 0 132.8 132.8" style="enable-background:new 0 0 132.8 132.8;" xml:space="preserve">
<style type="text/css">
	.st0{fill:none;stroke:#1497AB;stroke-width:2;stroke-miterlimit:10;}
	.st1{fill:#1098AB;}
	.st2{enable-background:new    ;}
	.st3{fill:#34007C;}
	.st4{font-family:'Futura-Bold';}
	.st5{font-size:50px;}
	.st6{font-size:15px;}
	.st7{letter-spacing:1;}
</style>
<image style="display:none;overflow:visible;" width="1210" height="1112" id="Layer_0" xlink:href="21BA4C2C26809B9C.png"  transform="matrix(0.1409 0 0 0.1409 -19.3651 -12.0146)">
</image>
<circle class="st0" cx="66.5" cy="66.4" r="64.4"/>
<polygon class="st1" points="14.3,71.5 10.9,69.7 7.5,71.5 8.2,67.8 5.4,65.1 9.2,64.5 10.9,61.1 12.6,64.5 16.4,65.1 13.7,67.8 "/>
<polygon class="st1" points="125.2,71.5 121.8,69.7 118.4,71.5 119,67.8 116.3,65.1 120.1,64.5 121.8,61.1 123.5,64.5 127.3,65.1 
	124.5,67.8 "/>
<g class="st2">
	<g>
		<path class="st3" d="M32.9,20.4c-0.8-0.1-1.5,0.1-2.2,0.6c-0.3,0.2-0.5,0.5-0.7,0.8c-0.2,0.3-0.3,0.6-0.3,0.9
			c-0.1,0.3,0,0.6,0,0.9c0.1,0.3,0.2,0.5,0.4,0.7c0.2,0.2,0.4,0.4,0.7,0.5c0.3,0.1,0.5,0.2,0.8,0.2c0.3,0,0.6-0.1,0.9-0.2
			c0.3-0.1,0.6-0.3,0.8-0.5c0.6-0.5,0.9-1.1,1.1-1.9c0.5,0.6,0.9,1.3,1.4,1.9c0,0.1-0.1,0.1-0.1,0.2c-0.2,0.3-0.4,0.5-0.6,0.8
			c-0.2,0.2-0.4,0.4-0.6,0.6c-0.5,0.4-1,0.7-1.5,0.9c-0.5,0.2-1.1,0.3-1.7,0.4c-0.6,0-1.1,0-1.6-0.2c-0.5-0.2-1-0.5-1.4-0.9
			c-0.4-0.4-0.7-0.9-0.8-1.4c-0.1-0.5-0.1-1.1,0-1.7c0.1-0.6,0.3-1.2,0.7-1.7c0.3-0.6,0.8-1.1,1.3-1.5c0.3-0.2,0.6-0.5,1-0.6
			c0.3-0.2,0.7-0.3,1.1-0.5C32,19.1,32.5,19.8,32.9,20.4z"/>
		<path class="st3" d="M38.2,15.9c-0.8,0.5-1.7,1-2.5,1.5c0.2,0.4,0.5,0.7,0.7,1.1c0.8-0.5,1.5-1,2.3-1.4c0.3,0.5,0.6,1,0.8,1.4
			c-0.8,0.4-1.5,0.9-2.2,1.4c0.2,0.4,0.5,0.7,0.7,1.1c0.8-0.5,1.5-1,2.3-1.4c0.3,0.5,0.6,1,0.8,1.5c-1.4,0.8-2.7,1.7-4.1,2.6
			c-1.5-2.1-2.9-4.1-4.4-6.2c1.5-1.1,3.1-2.1,4.7-3C37.7,14.9,38,15.4,38.2,15.9z"/>
		<path class="st3" d="M41.2,12.4c0.9,1.8,1.7,3.6,2.6,5.3c0.8-0.4,1.6-0.8,2.5-1.1c0.2,0.5,0.4,1,0.6,1.5c-1.5,0.6-2.9,1.3-4.3,2
			c-1.2-2.2-2.4-4.5-3.6-6.7C39.7,13.2,40.5,12.8,41.2,12.4z"/>
		<path class="st3" d="M50.7,10.6c-0.9,0.3-1.8,0.5-2.7,0.9c0.1,0.4,0.3,0.8,0.4,1.2c0.8-0.3,1.7-0.6,2.5-0.8
			c0.2,0.5,0.3,1.1,0.5,1.6c-0.8,0.2-1.6,0.5-2.4,0.8c0.1,0.4,0.3,0.8,0.4,1.2c0.8-0.3,1.7-0.6,2.5-0.8c0.2,0.5,0.3,1.1,0.5,1.6
			c-1.5,0.4-3,0.9-4.5,1.5c-0.9-2.4-1.9-4.7-2.8-7.1c1.7-0.7,3.4-1.2,5.1-1.7C50.4,9.5,50.5,10.1,50.7,10.6z"/>
		<path class="st3" d="M51.9,8.6c1.2-0.3,2.4-0.6,3.6-0.8c0.9-0.2,1.5-0.1,2,0.2c0.5,0.3,0.8,0.7,0.9,1.3c0.1,0.4,0,0.7-0.1,1
			c-0.1,0.3-0.3,0.5-0.6,0.7c0.3,0,0.6,0,0.9,0.1c0.2,0.1,0.4,0.2,0.6,0.3c0.2,0.1,0.3,0.3,0.4,0.5c0.1,0.2,0.1,0.4,0.2,0.6
			c0,0.4,0,0.7-0.1,1c-0.1,0.3-0.3,0.5-0.5,0.8c-0.2,0.2-0.5,0.4-0.8,0.6c-0.3,0.1-0.7,0.3-1.1,0.3c-1.1,0.2-2.2,0.5-3.4,0.7
			C53.2,13.4,52.6,11,51.9,8.6z M55,10.9c0.1,0,0.3-0.1,0.4-0.1c0.7-0.1,1-0.4,0.9-0.9c-0.1-0.5-0.5-0.7-1.2-0.5
			c-0.1,0-0.3,0.1-0.4,0.1C54.8,9.9,54.9,10.4,55,10.9z M55.6,13.9c0.2,0,0.3-0.1,0.5-0.1c0.5-0.1,0.9-0.2,1.1-0.4
			c0.2-0.2,0.3-0.4,0.2-0.7c0-0.3-0.2-0.5-0.5-0.5c-0.3-0.1-0.7-0.1-1.2,0c-0.2,0-0.3,0.1-0.5,0.1C55.4,12.8,55.5,13.4,55.6,13.9z"
			/>
		<path class="st3" d="M68.1,14.3c-0.9,0-1.8,0-2.7,0c-0.7-0.9-1.4-1.9-2.2-2.8c0.1,1,0.1,1.9,0.2,2.9c-0.7,0-1.4,0.1-2.1,0.2
			C61,12,60.7,9.5,60.4,7c1.3-0.1,2.5-0.2,3.8-0.3c0.5,0,1,0,1.4,0.1c0.4,0.1,0.7,0.3,1,0.5c0.3,0.2,0.4,0.5,0.6,0.7
			c0.1,0.3,0.2,0.6,0.2,0.9c0,0.6-0.2,1-0.5,1.4c-0.3,0.4-0.8,0.6-1.4,0.7C66.3,12.2,67.2,13.2,68.1,14.3z M63.1,10.2
			c0.1,0,0.3,0,0.4,0c0.5,0,0.8-0.1,1-0.3c0.2-0.2,0.4-0.4,0.3-0.7c0-0.3-0.1-0.5-0.4-0.7c-0.3-0.2-0.6-0.2-1.1-0.2
			c-0.1,0-0.3,0-0.4,0C63,8.9,63.1,9.6,63.1,10.2z"/>
		<path class="st3" d="M74.1,13.5c-1-0.1-2.1-0.3-3.1-0.3c-0.2,0.4-0.4,0.8-0.6,1.3c-0.8-0.1-1.5-0.1-2.3-0.1
			c1.1-2.5,2.4-4.9,3.8-7.3c0.9,0.1,1.8,0.2,2.7,0.3c0.9,2.6,1.5,5.3,2.1,8c-0.7-0.1-1.5-0.3-2.2-0.4C74.3,14.4,74.2,13.9,74.1,13.5
			z M73.8,11.9c-0.2-0.9-0.5-1.7-0.7-2.6c-0.4,0.8-0.9,1.6-1.3,2.4C72.4,11.7,73.1,11.8,73.8,11.9z"/>
		<path class="st3" d="M82.2,10.5c-0.5,1.9-1.1,3.8-1.6,5.6c-0.7-0.2-1.4-0.4-2.1-0.5c0.4-1.9,0.9-3.8,1.3-5.7
			c-0.6-0.2-1.3-0.3-1.9-0.4c0.1-0.5,0.2-1.1,0.3-1.6c2.1,0.4,4.2,1,6.3,1.6c-0.2,0.5-0.3,1.1-0.5,1.6
			C83.5,10.9,82.8,10.7,82.2,10.5z"/>
		<path class="st3" d="M88,10.7c-0.9,2.3-1.8,4.7-2.7,7c-0.7-0.3-1.3-0.5-2-0.7c0.8-2.4,1.6-4.7,2.4-7.1
			C86.4,10.1,87.2,10.4,88,10.7z"/>
		<path class="st3" d="M86.9,18.3c1-2.3,2-4.6,2.9-6.9c0.8,0.3,1.5,0.7,2.3,1c0.7,2,1.3,4.1,1.8,6.1c0.8-1.3,1.5-2.6,2.3-4
			c0.7,0.4,1.4,0.9,2.1,1.3c-1.3,2.1-2.7,4.2-4,6.3c-0.6-0.4-1.2-0.8-1.9-1.1c-0.4-2-0.9-4-1.6-6c-0.7,1.4-1.3,2.8-2,4.1
			C88.2,18.9,87.5,18.6,86.9,18.3z"/>
		<path class="st3" d="M101.8,22.5c1.2,1,2.5,2.1,3.6,3.2c-0.3,0.3-0.5,0.5-0.8,0.7c-0.3,0.2-0.5,0.4-0.8,0.5
			c-0.4,0.2-0.8,0.3-1.2,0.3c-0.4,0-0.8,0-1.2-0.1c-0.4-0.1-0.8-0.3-1.2-0.5c-0.4-0.2-0.8-0.5-1.2-0.8c-0.5-0.4-0.9-0.9-1.3-1.4
			c-0.3-0.5-0.6-1-0.7-1.5c-0.1-0.5-0.1-1-0.1-1.6c0.1-0.5,0.3-1,0.6-1.5c0.3-0.5,0.7-0.9,1.2-1.1c0.5-0.3,1-0.4,1.6-0.4
			c0.6,0,1.2,0.1,1.8,0.3c0.6,0.2,1.3,0.6,1.9,1.1c0.8,0.7,1.4,1.4,1.8,2.2c0.4,0.8,0.5,1.6,0.3,2.4c-0.8-0.4-1.5-0.7-2.3-1
			c0.1-0.5,0.1-0.9-0.1-1.2c-0.2-0.4-0.4-0.7-0.8-1c-0.3-0.2-0.6-0.4-0.9-0.5c-0.3-0.1-0.6-0.1-0.9-0.1c-0.3,0-0.6,0.1-0.8,0.3
			c-0.3,0.2-0.5,0.4-0.7,0.7c-0.2,0.3-0.3,0.5-0.4,0.8c-0.1,0.3-0.1,0.6-0.1,0.8c0,0.3,0.1,0.5,0.3,0.8c0.2,0.3,0.4,0.5,0.7,0.8
			c0.2,0.1,0.4,0.3,0.6,0.4c0.2,0.1,0.4,0.2,0.6,0.2c0.2,0,0.4,0,0.6,0c0.2,0,0.4-0.1,0.5-0.3c-0.5-0.4-1-0.8-1.5-1.3
			C101.1,23.3,101.5,22.9,101.8,22.5z"/>
	</g>
</g>
<g>
	<g>
		<path class="st3" d="M34.4,108.3c-1.4,2.1-2.7,4.2-4.1,6.3c-0.7-0.4-1.3-0.9-2-1.4c1.4-2.1,2.9-4.1,4.3-6.2
			C33.2,107.5,33.8,107.9,34.4,108.3z"/>
		<path class="st3" d="M32,115.6c1.3-2.1,2.6-4.3,3.9-6.4c0.6,0.4,1.2,0.7,1.8,1.1c0.4,2,0.9,4,1.5,6c0.7-1.4,1.3-2.8,2-4.2
			c0.6,0.3,1.3,0.6,1.9,0.9c-1,2.3-2,4.6-3,6.9c-0.7-0.3-1.4-0.6-2.2-1c-0.7-2-1.2-4-1.7-6.1c-0.8,1.3-1.5,2.7-2.3,4
			C33.4,116.4,32.7,116,32,115.6z"/>
		<path class="st3" d="M48.1,114.8c1,0.3,2,0.6,3,0.9c0.7,0.2,1.2,0.5,1.5,0.9c0.3,0.4,0.4,0.9,0.2,1.5c-0.1,0.4-0.2,0.7-0.4,0.9
			c-0.2,0.2-0.5,0.4-0.8,0.5c0.3,0.1,0.5,0.3,0.7,0.4c0.2,0.2,0.3,0.3,0.4,0.5c0.1,0.2,0.2,0.4,0.2,0.6c0,0.2,0,0.4,0,0.6
			c-0.1,0.3-0.2,0.6-0.4,0.9c-0.2,0.2-0.5,0.4-0.7,0.5c-0.3,0.1-0.6,0.2-1,0.2c-0.4,0-0.8-0.1-1.3-0.2c-1.2-0.3-2.4-0.7-3.6-1.1
			C46.5,119.6,47.3,117.2,48.1,114.8z M49.3,118.3c0.1,0,0.3,0.1,0.4,0.1c0.7,0.2,1.1,0,1.2-0.4c0.1-0.5-0.1-0.8-0.8-1
			c-0.1,0-0.3-0.1-0.4-0.1C49.6,117.3,49.4,117.8,49.3,118.3z M48.4,121.2c0.2,0,0.3,0.1,0.5,0.1c0.6,0.2,1,0.2,1.2,0.1
			c0.3-0.1,0.4-0.2,0.5-0.5c0.1-0.3,0-0.5-0.2-0.7c-0.2-0.2-0.6-0.3-1.1-0.5c-0.2,0-0.3-0.1-0.5-0.1
			C48.7,120.2,48.6,120.7,48.4,121.2z"/>
		<path class="st3" d="M57.3,117c-0.2,1.3-0.4,2.7-0.6,4c0,0.2-0.1,0.4-0.1,0.7c0,0.2,0,0.4,0.1,0.6c0.1,0.2,0.2,0.4,0.4,0.5
			c0.2,0.1,0.5,0.2,0.9,0.3c0.4,0.1,0.7,0,0.9-0.1c0.2-0.1,0.4-0.2,0.5-0.4c0.1-0.2,0.2-0.4,0.2-0.6c0-0.2,0.1-0.4,0.1-0.7
			c0.2-1.4,0.3-2.7,0.5-4.1c0.7,0.1,1.4,0.1,2,0.2c-0.1,1.5-0.2,2.9-0.3,4.4c-0.1,1.2-0.5,2-1.1,2.5c-0.7,0.5-1.7,0.7-3,0.5
			c-1.3-0.2-2.3-0.6-2.8-1.3c-0.5-0.6-0.7-1.5-0.4-2.7c0.3-1.4,0.6-2.9,0.8-4.3C55.9,116.8,56.6,116.9,57.3,117z"/>
		<path class="st3" d="M68.2,119.7c-0.2-0.2-0.5-0.3-0.7-0.4c-0.2-0.1-0.5-0.1-0.7-0.1c-0.3,0-0.5,0.1-0.7,0.2
			c-0.2,0.1-0.3,0.3-0.3,0.5c0,0.1,0,0.2,0.1,0.3c0.1,0.1,0.2,0.2,0.3,0.2c0.1,0.1,0.3,0.1,0.5,0.2c0.2,0,0.4,0.1,0.5,0.1
			c0.7,0.2,1.2,0.5,1.6,0.8c0.3,0.3,0.5,0.8,0.6,1.4c0,0.4,0,0.7-0.2,1.1c-0.1,0.3-0.4,0.6-0.6,0.8c-0.3,0.2-0.6,0.4-1.1,0.5
			c-0.4,0.1-0.9,0.2-1.5,0.2c-1.1,0-2.2-0.3-3.1-0.9c0.4-0.5,0.7-1,1-1.5c0.3,0.3,0.7,0.5,1,0.6c0.3,0.1,0.7,0.2,1,0.2
			c0.4,0,0.6-0.1,0.8-0.2c0.2-0.1,0.3-0.3,0.3-0.5c0-0.1,0-0.2-0.1-0.3c0-0.1-0.1-0.2-0.2-0.2c-0.1-0.1-0.2-0.1-0.4-0.2
			c-0.2-0.1-0.4-0.1-0.6-0.2c-0.3-0.1-0.6-0.2-0.8-0.3c-0.3-0.1-0.5-0.2-0.7-0.4c-0.2-0.2-0.4-0.4-0.5-0.6c-0.1-0.2-0.2-0.6-0.2-0.9
			c0-0.4,0.1-0.7,0.2-1c0.1-0.3,0.3-0.5,0.6-0.8c0.2-0.2,0.5-0.4,0.9-0.5c0.3-0.1,0.7-0.2,1.1-0.2c0.4,0,0.8,0,1.2,0.1
			c0.4,0.1,0.8,0.2,1.2,0.4C68.7,118.7,68.4,119.2,68.2,119.7z"/>
		<path class="st3" d="M72.6,117.5c0.3,2.5,0.5,5,0.8,7.5c-0.8,0.1-1.5,0.1-2.3,0.2c-0.2-2.5-0.3-5-0.5-7.5
			C71.2,117.6,71.9,117.5,72.6,117.5z"/>
		<path class="st3" d="M75.3,124.8c-0.3-2.5-0.7-5-1-7.5c0.7-0.1,1.4-0.2,2-0.3c1.5,1.3,3.1,2.6,4.8,3.7c-0.4-1.5-0.7-3-1.1-4.5
			c0.7-0.2,1.3-0.3,2-0.5c0.7,2.4,1.3,4.9,2,7.3c-0.8,0.2-1.5,0.4-2.3,0.6c-1.8-1.2-3.4-2.4-5-3.7c0.3,1.5,0.5,3,0.8,4.5
			C76.8,124.5,76,124.7,75.3,124.8z"/>
		<path class="st3" d="M88.6,115.3c-0.8,0.3-1.6,0.6-2.4,0.9c0.1,0.4,0.3,0.8,0.4,1.2c0.8-0.3,1.5-0.5,2.3-0.8
			c0.2,0.5,0.4,1,0.6,1.5c-0.8,0.3-1.6,0.6-2.4,0.9c0.1,0.4,0.3,0.8,0.4,1.2c0.9-0.3,1.7-0.6,2.6-0.9c0.2,0.5,0.4,1,0.6,1.5
			c-1.6,0.6-3.2,1.2-4.9,1.7c-0.7-2.4-1.5-4.8-2.2-7.2c1.5-0.4,2.9-0.9,4.3-1.5C88.2,114.3,88.4,114.8,88.6,115.3z"/>
		<path class="st3" d="M94.3,113c-0.3,0-0.6-0.1-0.8,0c-0.2,0-0.5,0.1-0.7,0.2c-0.3,0.1-0.4,0.3-0.5,0.5c-0.1,0.2-0.1,0.4,0,0.5
			c0.1,0.1,0.1,0.2,0.3,0.2c0.1,0,0.3,0.1,0.4,0.1c0.2,0,0.3,0,0.5-0.1c0.2,0,0.4-0.1,0.6-0.1c0.7-0.1,1.4-0.1,1.8,0
			c0.5,0.2,0.8,0.5,1.1,1c0.2,0.3,0.3,0.7,0.3,1c0,0.3-0.1,0.7-0.2,1c-0.2,0.3-0.4,0.7-0.8,1c-0.3,0.3-0.8,0.6-1.3,0.8
			c-1.1,0.5-2.2,0.7-3.3,0.5c0.1-0.6,0.2-1.2,0.3-1.8c0.4,0.1,0.8,0.1,1.2,0.1c0.4,0,0.7-0.1,1-0.2c0.3-0.2,0.6-0.4,0.7-0.6
			c0.1-0.2,0.1-0.4,0-0.6c0-0.1-0.1-0.2-0.2-0.2c-0.1-0.1-0.2-0.1-0.3-0.1c-0.1,0-0.3,0-0.5,0c-0.2,0-0.4,0-0.7,0.1
			c-0.3,0.1-0.6,0.1-0.9,0.1c-0.3,0-0.6,0-0.8-0.1c-0.3-0.1-0.5-0.2-0.7-0.4c-0.2-0.2-0.4-0.4-0.5-0.8c-0.1-0.3-0.2-0.7-0.2-1
			c0-0.3,0.1-0.6,0.2-0.9c0.1-0.3,0.3-0.6,0.6-0.8c0.3-0.3,0.6-0.5,1-0.7c0.4-0.2,0.8-0.3,1.2-0.4c0.4-0.1,0.9-0.2,1.3-0.2
			C94.4,111.9,94.4,112.4,94.3,113z"/>
		<path class="st3" d="M100.6,109.3c-0.3,0-0.6,0-0.8,0.1c-0.2,0.1-0.5,0.2-0.7,0.3c-0.2,0.2-0.4,0.3-0.5,0.5
			c-0.1,0.2-0.1,0.4,0,0.5c0.1,0.1,0.2,0.2,0.3,0.2c0.1,0,0.3,0,0.4,0c0.2,0,0.3-0.1,0.5-0.1c0.2-0.1,0.4-0.1,0.5-0.2
			c0.7-0.2,1.3-0.3,1.8-0.2c0.5,0.1,0.9,0.4,1.2,0.8c0.2,0.3,0.4,0.6,0.4,1c0,0.3,0,0.7-0.1,1.1c-0.1,0.4-0.3,0.7-0.7,1.1
			c-0.3,0.4-0.7,0.7-1.2,1c-1,0.6-2.1,0.9-3.2,0.9c0-0.6,0.1-1.2,0.1-1.9c0.4,0,0.8,0,1.2,0c0.4-0.1,0.7-0.2,1-0.4
			c0.3-0.2,0.5-0.4,0.6-0.6c0.1-0.2,0.1-0.4,0-0.6c-0.1-0.1-0.1-0.2-0.2-0.2c-0.1,0-0.2-0.1-0.3-0.1c-0.1,0-0.3,0-0.5,0.1
			c-0.2,0-0.4,0.1-0.7,0.2c-0.3,0.1-0.6,0.2-0.9,0.2c-0.3,0.1-0.6,0.1-0.8,0.1c-0.3,0-0.5-0.1-0.8-0.3c-0.2-0.1-0.4-0.4-0.6-0.7
			c-0.2-0.3-0.3-0.7-0.3-1c0-0.3,0-0.7,0.1-1c0.1-0.3,0.3-0.6,0.5-0.9c0.2-0.3,0.5-0.5,0.9-0.8c0.3-0.2,0.7-0.4,1.2-0.6
			c0.4-0.2,0.9-0.3,1.3-0.3C100.5,108.2,100.6,108.7,100.6,109.3z"/>
	</g>
</g>
<g>
	<circle class="st0" cx="66.5" cy="66.4" r="46.9"/>
	<g>
		<text transform="matrix(1 0 0 1 32.473 76.0324)" class="st3 st4 st5">30</text>
		<text transform="matrix(1 0 0 1 37.9082 93.4257)" class="st3 st4 st6 st7">YEARS</text>
	</g>
</g>
</svg>
